<?xml version="1.0" standalone="no"?>
<!DOCTYPE svg PUBLIC "-//W3C//DTD SVG 20010904//EN"
 "http://www.w3.org/TR/2001/REC-SVG-20010904/DTD/svg10.dtd">
<svg version="1.0" xmlns="http://www.w3.org/2000/svg"
 width="1024.000000pt" height="1024.000000pt" viewBox="0 0 1024.000000 1024.000000"
 preserveAspectRatio="xMidYMid meet">

<g transform="translate(0.000000,1024.000000) scale(0.100000,-0.100000)"
fill="#000000" stroke="none">
<path d="M5084 7830 c-17 -4 -71 -30 -120 -57 -49 -28 -206 -115 -349 -193
-262 -144 -1246 -690 -1645 -913 -118 -67 -314 -176 -435 -243 -240 -134 -276
-159 -302 -207 -17 -30 -18 -138 -18 -1907 l0 -1875 23 -42 c12 -24 41 -55 64
-70 l42 -28 2745 -3 c1957 -2 2759 1 2790 8 59 15 97 43 121 91 20 38 20 60
18 1928 l-3 1890 -21 28 c-20 26 -260 168 -769 453 -121 67 -310 173 -420 235
-1253 704 -1610 899 -1660 907 -16 3 -44 2 -61 -2z m390 -526 c166 -92 391
-217 501 -279 110 -62 418 -234 685 -382 267 -149 541 -301 610 -340 69 -38
190 -105 270 -148 80 -42 151 -84 158 -93 9 -13 12 -371 12 -1718 l0 -1703
-22 -15 c-20 -14 -281 -16 -2572 -16 -2358 0 -2551 1 -2568 17 -17 15 -18 82
-18 1720 0 1681 0 1703 20 1723 11 11 45 33 77 49 32 16 335 183 673 371 338
189 739 411 890 495 151 84 383 212 515 285 384 213 398 220 436 210 17 -5
167 -84 333 -176z"/>
<path d="M4754 6730 c-53 -3 -98 -10 -107 -18 -22 -19 -47 -76 -47 -109 1 -45
36 -111 72 -133 32 -19 49 -20 453 -20 480 0 467 -2 500 84 24 63 14 110 -35
158 l-38 38 -103 0 c-57 0 -216 1 -354 3 -137 1 -291 0 -341 -3z"/>
<path d="M4319 5777 c-62 -42 -60 -15 -57 -674 l3 -602 -310 -3 c-340 -3 -342
-4 -382 -65 -17 -25 -18 -77 -18 -763 l0 -735 23 -33 c13 -18 38 -40 55 -50
30 -16 125 -17 1492 -17 1450 0 1460 0 1495 20 73 43 70 5 70 815 0 701 -1
726 -20 757 -41 68 -41 68 -382 71 l-308 3 0 487 c0 720 -4 766 -71 799 -18
10 -201 13 -790 13 l-766 0 -34 -23z m641 -422 l0 -155 155 0 155 0 0 155 0
155 200 0 200 0 0 -452 c0 -249 3 -477 6 -505 l7 -53 -555 0 -555 0 -6 128
c-4 70 -7 297 -7 505 l0 377 200 0 200 0 0 -155z m-690 -1314 l0 -150 153 2
152 2 -3 148 -3 147 195 0 196 0 0 -530 0 -530 -555 0 -555 0 0 530 0 530 210
0 210 0 0 -149z m1400 1 l0 -148 156 -1 155 -1 -3 149 -3 149 208 0 207 0 0
-530 0 -530 -560 0 -560 0 0 530 0 530 200 0 200 0 0 -148z"/>
</g>
</svg>
